<?xml version="1.0" encoding="UTF-8"?><svg id="a" xmlns="http://www.w3.org/2000/svg" xmlns:xlink="http://www.w3.org/1999/xlink" viewBox="0 0 700 500"><defs><style>.f{fill:url(#c);}.g{fill:url(#b);}.h{stroke-width:.27px;}.h,.i,.j,.k,.l,.m,.n,.o,.p,.q,.r,.s,.t{stroke-miterlimit:10;}.h,.i,.j,.k,.n,.o,.p,.q,.r,.s,.t{stroke:#194aad;}.h,.u,.v,.w,.x{fill:#8fbee0;}.i{stroke-width:.82px;}.i,.k{stroke-linecap:round;}.i,.k,.y,.n,.p,.r,.s,.t{fill:#fff;}.j{stroke-width:.41px;}.j,.l,.m,.o{fill:none;}.k,.n{stroke-width:.5px;}.a`{fill:#063982;}.aa{fill:#0c4196;}.ab,.ac,.ad{fill:#194aad;}.l{stroke:url(#e);}.l,.m,.q{stroke-width:1.09px;}.m{stroke:url(#d);}.o{stroke-width:.51px;}.ac{opacity:.19;}.ae{opacity:.41;}.af{opacity:.37;}.p{stroke-width:.26px;}.q{fill:#e6f7ff;}.r{stroke-width:.55px;}.s{stroke-width:.75px;}.v{opacity:.52;}.w{opacity:.28;}.x{opacity:.45;}.t{stroke-width:.64px;}.ad{font-family:Poppins-Bold, Poppins;font-size:8.21px;}</style><linearGradient id="b" x1="337.3" y1="434.44" x2="499.98" y2="434.44" gradientTransform="matrix(1, 0, 0, 1, 0, 0)" gradientUnits="userSpaceOnUse"><stop offset="0" stop-color="#8fbee0"/><stop offset=".15" stop-color="#90bfe0" stop-opacity=".98"/><stop offset=".28" stop-color="#96c2e2" stop-opacity=".93"/><stop offset=".41" stop-color="#9fc7e4" stop-opacity=".85"/><stop offset=".54" stop-color="#accfe8" stop-opacity=".73"/><stop offset=".67" stop-color="#bdd9ec" stop-opacity=".58"/><stop offset=".79" stop-color="#d2e5f2" stop-opacity=".4"/><stop offset=".91" stop-color="#eaf3f9" stop-opacity=".18"/><stop offset="1" stop-color="#fff" stop-opacity="0"/></linearGradient><linearGradient id="c" x1="249.79" y1="227.77" x2="308.2" y2="227.77" gradientTransform="matrix(1, 0, 0, 1, 0, 0)" gradientUnits="userSpaceOnUse"><stop offset="0" stop-color="#fff"/><stop offset=".38" stop-color="#fff" stop-opacity="0"/></linearGradient><linearGradient id="d" x1="244.06" y1="227.77" x2="313.92" y2="227.77" xlink:href="#c"/><linearGradient id="e" x1="216.76" y1="293.73" x2="249.71" y2="293.73" xlink:href="#c"/></defs><g><polygon class="g" points="337.3 440.88 464.38 445.65 499.98 423.22 403 423.22 337.3 440.88"/><ellipse class="v" cx="517.35" cy="437.76" rx="80.24" ry="12.84"/><ellipse class="v" cx="281.48" cy="439.81" rx="84.71" ry="12.84"/><path class="w" d="M62.96,326.82s-37.78-32.51-10.54-80.83c27.24-48.32,130.03-58.87,180.99-91.37,50.96-32.51,56.23-55.35,85.22-84.34,28.99-28.99,78.19-40.42,119.49-21.09,41.29,19.33,83.47,65.89,115.97,66.77,32.51,.88,74.68-3.51,86.98,30.75,12.3,34.27-48.32,87.86-44.81,111.58,3.51,23.72,31.63,151.12-46.57,172.2-78.19,21.09-110.7-21.96-151.12-18.45-40.42,3.51-43.93,63.26-125.64,44.81-81.71-18.45-68.53-59.74-115.1-79.07-46.57-19.33-69.41-21.96-94.89-50.96Z"/><path class="u" d="M493.37,309.37s34.09-28.73,72.02-25.28c0,0-14.94,51.33-72.02,68.57v-43.29Z"/><path class="w" d="M510.68,325.36s34.74,.73,50.83,17.92c0,0-24.5,18.28-57.41,1.1l6.58-19.01Z"/><g class="af"><path class="ab" d="M95.55,313.1s9.27,26.72,34.6,36.13l2.03,.53c8.01,2.08,16.25,3.18,24.53,3.26l18.33,.17-35.21-37.22c-1.08-.66-21.8-12.91-44.28-2.87Z"/></g><g><path class="ab" d="M178.26,321.22s-20.82-44.88-62.09-36.6c0,0,7.59,50.57,55.35,67.1l6.75-30.5Z"/><path class="y" d="M164.32,329.36c-9.23-15.21-21.72-28.91-37.15-37.95l-1.64-.99-1.71-.86-3.43-1.73c18.98,7.97,34.11,23.67,43.93,41.54h0Z"/><path class="y" d="M157.73,323.81c-5.28-.26-10.8-.76-16.04-1.44,5.28,.27,10.8,.76,16.04,1.44h0Z"/><path class="y" d="M153.72,308.73c-1.38-4-2.56-8.07-3.53-12.19,1.38,4,2.56,8.07,3.53,12.19h0Z"/><path class="y" d="M143.93,306.32c-3.98-.32-7.94-.86-11.87-1.6,3.99,.32,7.94,.86,11.87,1.6h0Z"/><path class="y" d="M138,296.06c-1.16-2.27-2.12-4.63-2.89-7.06,1.16,2.27,2.12,4.63,2.89,7.06h0Z"/></g><g><g><path class="ab" d="M133.57,264.63s-11.84,7.9-11.98,3.34c-.12-4.08,9.59-3.53,11.61-3.38,.24,.02,.37,.03,.37,.03Z"/><path class="ab" d="M133.43,264.49s-7.9-11.84-3.34-11.98c4.56-.14,3.34,11.98,3.34,11.98Z"/><path class="ab" d="M141.7,269.49s-11.84,7.9-11.98,3.34c-.14-4.56,11.98-3.34,11.98-3.34Z"/><path class="ab" d="M141.74,269.5s-7.9-11.84-3.34-11.98c4.56-.14,3.34,11.98,3.34,11.98Z"/><path class="ab" d="M148.3,274.45s-10.39,6.93-10.51,2.93c-.12-4,10.51-2.93,10.51-2.93Z"/><path class="ab" d="M148.26,274.55s-6.93-10.39-2.93-10.51c4-.12,2.93,10.51,2.93,10.51Z"/><path class="ab" d="M154.22,279.95s-10.49,5.19-10.12,1.46c.37-3.73,10.12-1.46,10.12-1.46Z"/><path class="ab" d="M154.06,280.11s-5.19-10.49-1.46-10.12c3.73,.37,1.46,10.12,1.46,10.12Z"/><g><path class="ab" d="M159.4,286s-11.48,2.3-10.15-1.21c1.32-3.51,10.15,1.21,10.15,1.21Z"/><path class="ab" d="M159.25,286s-2.3-11.48,1.21-10.15c3.51,1.32-1.21,10.15-1.21,10.15Z"/></g><g><path class="ab" d="M163.56,291.93s-9.95,1.99-8.8-1.05c1.15-3.04,8.8,1.05,8.8,1.05Z"/><path class="ab" d="M163.31,292s-1.99-9.95,1.05-8.8c3.04,1.15-1.05,8.8-1.05,8.8Z"/></g><g><path class="ab" d="M166.4,296.74s-8.5,1.7-7.52-.89c.98-2.6,7.52,.89,7.52,.89Z"/><path class="ab" d="M166.14,296.84s-1.7-8.5,.89-7.52c2.6,.98-.89,7.52-.89,7.52Z"/></g></g><path class="ab" d="M134.14,264.96s-14.02-4.54-12.78-7.17c1.25-2.63,12.78,7.17,12.78,7.17Z"/><path class="j" d="M131.32,263.44s31.1,13.35,39.86,46.44"/></g><g><g><path class="ab" d="M523.81,277.59s11.84,7.9,11.98,3.34c.12-4.08-9.59-3.53-11.61-3.38-.24,.02-.37,.03-.37,.03Z"/><path class="ab" d="M523.95,277.45s7.9-11.84,3.34-11.98c-4.56-.14-3.34,11.98-3.34,11.98Z"/><path class="ab" d="M515.68,282.45s11.84,7.9,11.98,3.34c.14-4.56-11.98-3.34-11.98-3.34Z"/><path class="ab" d="M515.64,282.47s7.9-11.84,3.34-11.98c-4.56-.14-3.34,11.98-3.34,11.98Z"/><path class="ab" d="M509.08,287.41s10.39,6.93,10.51,2.93c.12-4-10.51-2.93-10.51-2.93Z"/><path class="ab" d="M509.11,287.51s6.93-10.39,2.93-10.51c-4-.12-2.93,10.51-2.93,10.51Z"/><path class="ab" d="M503.16,292.91s10.49,5.19,10.12,1.46c-.37-3.73-10.12-1.46-10.12-1.46Z"/><path class="ab" d="M503.32,293.08s5.19-10.49,1.46-10.12c-3.73,.37-1.46,10.12-1.46,10.12Z"/><g><path class="ab" d="M497.98,298.97s11.48,2.3,10.15-1.21c-1.32-3.51-10.15,1.21-10.15,1.21Z"/><path class="ab" d="M498.13,298.96s2.3-11.48-1.21-10.15c-3.51,1.32,1.21,10.15,1.21,10.15Z"/></g><g><path class="ab" d="M493.82,304.89s9.95,1.99,8.8-1.05c-1.15-3.04-8.8,1.05-8.8,1.05Z"/><path class="ab" d="M494.07,304.97s1.99-9.95-1.05-8.8c-3.04,1.15,1.05,8.8,1.05,8.8Z"/></g><g><path class="ab" d="M490.98,309.7s8.5,1.7,7.52-.89c-.98-2.6-7.52,.89-7.52,.89Z"/><path class="ab" d="M491.24,309.8s1.7-8.5-.89-7.52c-2.6,.98,.89,7.52,.89,7.52Z"/></g></g><path class="ab" d="M523.23,277.93s14.02-4.54,12.78-7.17c-1.25-2.63-12.78,7.17-12.78,7.17Z"/><path class="j" d="M526.06,276.41s-31.1,13.35-39.86,46.44"/></g><g class="ae"><g><path class="ab" d="M90.79,256.64s13.92-11.1,8.54-12.99c-4.82-1.7-7.86,10.07-8.44,12.54-.07,.29-.1,.45-.1,.45Z"/><path class="ab" d="M90.67,256.43s-11.1-13.92-12.99-8.54c-1.9,5.38,12.99,8.54,12.99,8.54Z"/><path class="ab" d="M93.47,268.17s13.92-11.1,8.54-12.99c-5.38-1.9-8.54,12.99-8.54,12.99Z"/><path class="ab" d="M93.48,268.23s-11.1-13.92-12.99-8.54c-1.9,5.38,12.99,8.54,12.99,8.54Z"/><path class="ab" d="M96.87,277.91s12.21-9.74,7.49-11.4c-4.72-1.66-7.49,11.4-7.49,11.4Z"/><path class="ab" d="M97.01,277.91s-9.73-12.21-11.4-7.49c-1.66,4.72,11.4,7.49,11.4,7.49Z"/><path class="ab" d="M101.17,287.05s10.17-10.52,5.59-11.5c-4.58-.98-5.59,11.5-5.59,11.5Z"/><path class="ab" d="M101.43,286.93s-10.52-10.17-11.5-5.59c-.98,4.58,11.5,5.59,11.5,5.59Z"/><g><path class="ab" d="M106.41,295.53s7.11-12.79,2.43-12.55c-4.68,.24-2.43,12.55-2.43,12.55Z"/><path class="ab" d="M106.46,295.36s-12.79-7.11-12.55-2.43c.24,4.68,12.55,2.43,12.55,2.43Z"/></g><g><path class="ab" d="M111.89,302.74s6.16-11.09,2.1-10.88c-4.06,.21-2.1,10.88-2.1,10.88Z"/><path class="ab" d="M112.07,302.47s-11.09-6.16-10.88-2.1c.21,4.06,10.88,2.1,10.88,2.1Z"/></g><g><path class="ab" d="M116.53,307.95s5.26-9.47,1.8-9.29c-3.47,.18-1.8,9.29-1.8,9.29Z"/><path class="ab" d="M116.75,307.68s-9.47-5.26-9.29-1.8c.18,3.47,9.29,1.8,9.29,1.8Z"/></g></g><path class="ab" d="M90.97,257.45s-.07-18.43-3.68-17.95c-3.61,.48,3.68,17.95,3.68,17.95Z"/><path class="o" d="M90.23,253.51s4.06,42.12,40.14,65.13"/></g><path class="q" d="M484.82,395.21l-310.57-22.51c-3.63-.26-6.45-3.29-6.45-6.93V144.46c0-3.58,2.72-6.58,6.29-6.92l310.57-29.51c4.08-.39,7.61,2.82,7.61,6.92V388.28c0,4.04-3.43,7.22-7.45,6.93Z"/><polygon class="n" points="464.6 366.19 320.48 357.88 320.48 166.31 464.6 155.01 464.6 366.19"/><path class="x" d="M493.49,281.61l-5.84,2.19c-1.5,.56-3.19,.24-4.38-.83-4.18-3.75-14.15-14.8-20.14-23.3l-9.71-2.14s-8.6-2.41-12.22-6.71h-25.8v-27.69l25.06,6.52v-23.29h45.93v44.4h-17.02l.21,.23,10.32,11.87,10.32,5.33,3.27,13.42Z"/><path class="x" d="M394.52,290.87v43.43h-26.32l-12.94,6.63-8.33,.61-16.06,22.3c-1.62,2.25-4.23,3.58-7,3.58h-19.05v14.03h-17.99l.44-42.76,2.95-2.92-3.05,.35-1.09-22.67,2.78-2.2,.8-5.76s5.86-1.1,7.66-1.2c1.79-.09,2.78-.99,4.37-.89,1.59,.1,1.29,4.08,.5,4.77-.8,.7-2.69,.39-2.69,.39l-.2,3.39,2.29,3.49-.89,2.58,.69,6.71,4.96-4.91,12.07-7.02,3.73,7.24-15.14,15.79-4.82,14.92,19.08-3.73,20.61-17.55,29.61-.87,10.75-37.73h12.28Z"/><path class="ab" d="M490.77,109.95l4.18,6.28c.42,.67,.64,1.44,.64,2.23V392.18l-3.68,3.82V113.55l-1.13-3.6Z"/><g><polygon class="n" points="276.95 224.41 179.89 227.28 179.89 175.51 276.95 168.55 276.95 224.41"/><polygon class="n" points="276.95 291.67 179.89 289.63 179.89 237.85 276.95 235.81 276.95 291.67"/><polygon class="n" points="276.95 358.92 179.89 351.97 179.89 300.19 276.95 303.07 276.95 358.92"/></g><polygon class="s" points="315.54 308.48 294.14 321.34 284.43 331.32 297.16 339.33 300.84 330.93 316.85 316.22 315.54 308.48"/><path class="r" d="M293.13,303.73l.48,2.45c.12,.6,.1,1.22-.06,1.82-.25,.96-.56,2.43-.17,2.82,.47,.47,2.65,2.76,3.45,3.6,.17,.18,.17,.46,0,.65l-.96,1.09s-.26,.93,.15,1.39,.46,1.13,.15,1.44c0,0,.46,.46,.31,.98s-.77,.1-.72,1.49c.05,1.39,.82,3.29-1.18,3.91-2.01,.62-5.2,.9-5.2,.9l-.31,6.1,1.03,2.99s-11.25-3.37-13.26-6.77l.49-4.09-3.14-5.25v-3.96l1.75-3.81,7.67-6.95,9.51-.79Z"/><path class="w" d="M284.87,308.98s.36,5.36,2.18,8.17,1.45,5.63,1.45,5.63c0,0,2.45,2.92,5.51,2.38,0,0-7.55,1.83-10.91,.3l-6.28-2.71-3.52-9.12,10.29-5.42,1.27,.76Z"/><path class="ab" d="M294.47,304.56s-5.54,.94-7.35,1.37c-1.19,.28-2.06,2.41-2.52,3.83-.27,.83-.88,1.5-1.68,1.83l-.29,.12c-.77,.31-1.27,1.06-1.27,1.88v2.26h-1.28s-3.2-1.92-4.16-1.17-1.44,3.22,2.77,4.88c0,0-.21,5.04-1.7,7.28,0,0-2.28-5.4-5.54-9.2-2.28-2.65-2.77-9.35,1.71-12.12,0,0-2.9-7.83,4.8-7.89,5.37-.04,9.15,1.53,11.6,.25s4-1.9,6.24-1.15c2.24,.75,3.84,6.62-1.33,7.85Z"/><path class="ab" d="M266.42,380.7s-3.37,5.97-.92,13.02c2.45,7.04,19.91,35.37,19.91,35.37h-44.1l-.15,11.94s59.42,3.83,62.63,3.52,5.51-4.75,5.51-4.75l-12.56-41.04,7.81,.67c1.68,.14,3.01,1.48,3.13,3.17l2.23,29.39h10.14l2.87-42.39c.18-3.53-2.45-6.59-5.97-6.94l-22.51-2.27-28.02,.31Z"/><polygon class="ab" points="386.38 282.44 387.65 284.11 387.65 329.05 316.87 329.05 315.41 328.01 386.38 282.44"/><rect class="p" x="315.41" y="282.44" width="70.96" height="45.57"/><path class="p" d="M309.91,432v9.21h5.26l1.35-1.8,2.53,2.17h15.07s2.08-1.17,1.9-3.16-6.14-1.53-9.11-2.53c-2.98-.99-6.86-3.88-6.86-3.88h-10.14Z"/><path class="s" d="M336.22,332.15l4.99-9.45,6.8-4.25s1.38,2.23-1.17,3.82-2.66,2.44-2.66,2.44l4.68,4.34,14.86,.02-13.17,6.16-11.79,.74-2.55-3.82Z"/><path class="p" d="M240.75,430.38l-5.38-1.2-3.95,2.27,.84,2.15-3.47-.6s-13.87,5.14-15.31,6.34-1.44,5.98,5.5,4.54c6.94-1.44,14.83-3.47,18.3-3.23l3.47,.24v-10.52Z"/><path class="s" d="M278.04,327.09s-3.44,1.06-5.82,5.43c-2.38,4.37-2.65,18.93-3.44,25.81-.79,6.88,0,16.81-3.57,22.5,0,0,13.9,8.87,30.97,7.54,0,0-.4-10.99-.13-16.81s.66-15.22,.66-15.22l16.92,2.25c2.52,.33,5.05-.52,6.85-2.31l20.18-20.06-4.9-5.43-22.5,14.03s-19.72-8.74-22.37-10.99-12.84-6.75-12.84-6.75Z"/><polygon class="a`" points="406.12 389.48 406.12 392.86 432.1 377.06 432.22 373.42 406.12 389.48"/><polygon class="a`" points="406.12 429.5 406.12 432.87 432.1 417.07 432.22 413.43 406.12 429.5"/><polygon class="a`" points="406.12 385.79 406.12 389.16 432.1 373.36 432.22 369.72 406.12 385.79"/><polygon class="ab" points="337.3 437.5 337.3 440.88 406.24 440.88 432.15 425.06 432.15 421.39 337.3 437.5"/><polygon class="y" points="432.26 421.33 363.44 421.33 337.3 437.5 406.12 437.5 432.26 421.33"/><polygon class="ab" points="337.3 433.81 337.3 437.18 406.24 437.18 432.15 421.36 432.15 417.69 337.3 433.81"/><polygon class="y" points="432.26 417.63 363.44 417.63 337.3 433.81 406.12 433.81 432.26 417.63"/><polygon class="a`" points="406.12 397.49 406.12 400.86 432.1 385.06 432.22 381.42 406.12 397.49"/><polygon class="ab" points="337.3 430.17 337.3 433.55 406.24 433.55 432.15 417.73 432.15 414.05 337.3 430.17"/><polygon class="a`" points="406.12 393.79 406.12 397.17 432.1 381.37 432.22 377.72 406.12 393.79"/><polygon class="a`" points="406.12 405.49 406.12 408.87 432.1 393.06 432.22 389.42 406.12 405.49"/><polygon class="a`" points="406.12 401.79 406.12 405.17 432.1 389.37 432.22 385.73 406.12 401.79"/><polygon class="a`" points="406.12 413.49 406.12 416.87 432.1 401.07 432.22 397.43 406.12 413.49"/><polygon class="a`" points="406.12 409.8 406.12 413.17 432.1 397.37 432.22 393.73 406.12 409.8"/><polygon class="a`" points="406.12 421.5 406.12 424.87 432.1 409.07 432.22 405.43 406.12 421.5"/><polygon class="a`" points="406.12 417.8 406.12 421.18 432.1 405.37 432.22 401.73 406.12 417.8"/><polygon class="y" points="432.26 413.96 363.44 413.96 337.3 430.14 406.12 430.14 432.26 413.96"/><polygon class="a`" points="406.12 425.8 406.12 429.18 432.1 413.38 432.22 409.74 406.12 425.8"/><polygon class="ab" points="337.3 426.47 337.3 429.85 406.24 429.85 432.15 414.03 432.15 410.36 337.3 426.47"/><polygon class="y" points="432.26 410.3 363.44 410.3 337.3 426.47 406.12 426.47 432.26 410.3"/><polygon class="ab" points="337.3 422.83 337.3 426.2 406.24 426.2 432.15 410.38 432.15 406.71 337.3 422.83"/><polygon class="y" points="432.26 406.66 363.44 406.66 337.3 422.83 406.12 422.83 432.26 406.66"/><polygon class="ab" points="337.3 419.13 337.3 422.51 406.24 422.51 432.15 406.69 432.15 403.02 337.3 419.13"/><polygon class="y" points="432.26 402.96 363.44 402.96 337.3 419.13 406.12 419.13 432.26 402.96"/><polygon class="ab" points="337.3 415.39 337.3 418.77 406.24 418.77 432.15 402.95 432.15 399.28 337.3 415.39"/><polygon class="y" points="432.26 399.22 363.44 399.22 337.3 415.39 406.12 415.39 432.26 399.22"/><polygon class="ab" points="337.3 411.7 337.3 415.07 406.24 415.07 432.15 399.25 432.15 395.58 337.3 411.7"/><polygon class="y" points="432.26 395.53 363.44 395.53 337.3 411.7 406.12 411.7 432.26 395.53"/><polygon class="ab" points="337.3 408.04 337.3 411.42 406.24 411.42 432.15 395.6 432.15 391.93 337.3 408.04"/><polygon class="y" points="432.26 391.87 363.44 391.87 337.3 408.04 406.12 408.04 432.26 391.87"/><polygon class="ab" points="337.3 404.35 337.3 407.72 406.24 407.72 432.15 391.9 432.15 388.23 337.3 404.35"/><polygon class="y" points="432.26 388.18 363.44 388.18 337.3 404.35 406.12 404.35 432.26 388.18"/><polygon class="ab" points="337.3 400.73 337.3 404.11 406.24 404.11 432.15 388.29 432.15 384.62 337.3 400.73"/><polygon class="y" points="432.26 384.56 363.44 384.56 337.3 400.73 406.12 400.73 432.26 384.56"/><polygon class="ab" points="337.3 397.04 337.3 400.42 406.24 400.42 432.15 384.6 432.15 380.92 337.3 397.04"/><polygon class="y" points="432.26 380.87 363.44 380.87 337.3 397.04 406.12 397.04 432.26 380.87"/><polygon class="ab" points="337.3 393.39 337.3 396.76 406.24 396.76 432.15 380.94 432.15 377.27 337.3 393.39"/><polygon class="y" points="432.26 377.22 363.44 377.22 337.3 393.39 406.12 393.39 432.26 377.22"/><polygon class="p" points="470.87 426.17 468.81 432.53 477.84 432.53 479.56 428.15 470.87 426.17"/><polygon class="ab" points="337.3 389.69 337.3 393.07 406.24 393.07 432.15 377.25 432.15 373.58 337.3 389.69"/><polygon class="y" points="432.26 373.52 363.44 373.52 337.3 389.69 406.12 389.69 432.26 373.52"/><path class="r" d="M552.74,270.24l5.15,14.01c.49,1.34,.41,2.82-.23,4.09l-11.65,23.31-2.96-8.71,4.23-12.57c.55-1.21,.61-2.59,.17-3.85l-2.76-7.9,8.05-8.38Z"/><polygon class="p" points="563.57 419.76 566.76 425.06 573.34 418.32 570.62 413.64 563.57 419.76"/><polygon class="ab" points="337.3 385.98 337.3 389.36 406.24 389.36 432.15 373.54 432.15 369.86 337.3 385.98"/><path class="ab" d="M509.94,310.51l-20.69,43.85-19.1,72.67s3.71,3.01,9.9,2.3c0,0,22.81-58.53,25.46-66.66l16.27-19.27,11.14,34.13,30.37,42.97s3.72-.33,8.88-6.2l-26.44-49.79s-1.86-21.28,1.03-27.68c2.89-6.4,3.02-20.82-.76-25.18,0,0-23.31,4.37-36.07-1.13Z"/><polygon class="y" points="432.26 369.81 363.44 369.81 337.3 385.98 406.12 385.98 432.26 369.81"/><polygon class="ab" points="480.65 198.22 481.92 199.88 481.92 244.83 411.14 244.83 409.68 243.78 480.65 198.22"/><rect class="p" x="409.68" y="198.22" width="70.96" height="45.57"/><text class="ad" transform="translate(419.16 224.22)"><tspan x="0" y="0">Text Sources</tspan></text><path class="r" d="M495.91,263.57l-6,2.49-18.08-15.22s-2.21-5.63-3.14-7.2c-.92-1.57-.65-6.14-.65-6.14,0,0-1.57-.55-2.49,1.57-.92,2.12-.51,5.29-.51,5.29l-19.27-.35s4.06,6.25,10.05,7.45c6,1.2,9.71,2.18,9.71,2.18,0,0,12.17,16.41,20.27,23.13,1.27,1.06,2.99,1.4,4.57,.91l11.72-3.68-6.18-10.43Z"/><polygon class="ab" points="337.3 382.28 337.3 385.66 406.24 385.66 432.15 369.84 432.15 366.17 337.3 382.28"/><path class="h" d="M536.24,254.2s-5.85,.32-8.66-.87l-16.79,2.17-15.59,7.69s-1.48,7.04,2.8,12.43l10.24-2.16s-1.36,7.64,2.04,12.06c3.39,4.42,3.46,15.91-1.89,25.58,0,0,11.77,9.09,38.82,.65,0,0-3.5-6.38-3.6-10.9s1.65-20.47,1.65-20.47l-.07-23.28-8.94-2.9Z"/><path class="ac" d="M537.79,255.44s2.59,40.28-5.65,46.39c-8.24,6.1-20.45,10.38-20.45,10.38,0,0,9.33,6.54,34.74-.5,0,0-3.97-5.8-3.82-11.09s1.72-19.46,1.72-19.46l.29-11.09-.36-12.45-6.47-2.19Z"/><polygon class="p" points="432.26 366.11 363.44 366.11 337.3 382.28 406.12 382.28 432.26 366.11"/><path class="ab" d="M526.06,221.88s1.08-4.52,7.43-4.17,12.26,2.35,14.61,6.78,.35,13.05-.26,15.31c0,0,9.91,.81,11.64,11.76,1.73,10.95-4.18,16.28-6.48,20.75-2.31,4.47-2.31,10.81-9.08,11.24-6.77,.43-8.36-2.74-8.36-2.74,0,0,5.19-3.17,4.47-9.37-.72-6.2-3.97-11.59-4.65-17.18-.68-5.59,1.77-8.18,1.77-8.18l-8.36-8.07-2.73-16.13Z"/><path class="r" d="M538.93,245.34l-3.56,8.92c-2.18,.84-7.8,0-7.8,0v-7.72s-1.33-.12-2.76-.35c-.02-.01-.04-.01-.05-.01-1.24-.21-2.54-.51-3.13-.89-.01-.01-.02-.01-.02-.01-1.26-.84-.84-9.73,.25-11.66,1.09-1.93,1.6-2.18,1.93-4.78,.34-2.6,2.59-7.28,2.59-7.28,2.42,2.04,6.99,4.56,8.03,7.56,.11,.32,.18,.65,.21,.98,.25,3.44-1.18,6.46-1.18,6.46,2.02-1.68,3.59-1.18,4.15,.41,.71,2.01-2.64,4.56-2.64,4.56,0,0,.11,1.05,.86,2,.19,.25,.43,.5,.73,.72,1.46,1.07,2.39,1.09,2.39,1.09Z"/><path class="w" d="M534.95,241.53s.11,1.05,.86,2c-1.72,1.24-4.28,2.87-6.17,3.11-.64,.08-1.35,.07-2.07,.01-.93-.09-1.89-.26-2.76-.46-.02-.01-.04-.01-.05-.01-1.65-.38-2.97-.84-3.13-.89,.2,.06,1.76,.4,5.72-1.47,4.26-2,6.85-14.95,6.85-14.95l.21,.25c.11,.32,.18,.65,.21,.98,.25,3.44-1.18,6.46-1.18,6.46,2.02-1.68,3.59-1.18,4.15,.41,.71,2.01-2.64,4.56-2.64,4.56Z"/><path class="ab" d="M526.06,221.88s.67,2.82,2.52,4.29c1.85,1.48,3.33,3.33,4.14,4.8s-.33,6.04-.33,6.04l.71,.02,2.79-3.92v-8.28l-6.43-2-3.4-.97Z"/><path class="ab" d="M278.99,197.9c16.47,0,29.87,13.4,29.87,29.87s-13.4,29.87-29.87,29.87-29.87-13.4-29.87-29.87,13.4-29.87,29.87-29.87m0-8.72c-21.31,0-38.59,17.28-38.59,38.59s17.28,38.59,38.59,38.59,38.59-17.28,38.59-38.59-17.28-38.59-38.59-38.59h0Z"/><line class="t" x1="167.75" y1="151.28" x2="492.16" y2="121.79"/><rect class="ab" x="229.78" y="260.37" width="14.66" height="72.54" rx="4.67" ry="4.67" transform="translate(180.09 -78.81) rotate(30)"/><rect class="ab" x="253.27" y="258.55" width="6.42" height="10.8" transform="translate(166.34 -92.87) rotate(30)"/><path class="ab" d="M527.57,246.55s4.32,.45,7.24-1.92c0,0-3.07,7.96-7.24,9.63v-7.72Z"/><circle class="f" cx="278.99" cy="227.77" r="29.2"/><path class="ab" d="M565.89,424.42s1.66,2.58-2.02,5.15c-2.94,2.05-6.57,4.23-9.14,5.4-1.11,.51-1.49,1.96-.7,2.89,.86,1.01,2.43,1.84,5.24,1.1,5.27-1.38,17.16-8.12,20.3-10.67,.5-.41,.6-1.13,.22-1.66l-6.53-9.39s-2.02,3.31-7.36,7.18Z"/><path class="ab" d="M468.05,431.7s-10.84,2.38-16.13,2.51c0,0-1.98,.26-1.98,2.38l.4,1.32,24.33,1.32c1.43,.08,2.69-.93,2.93-2.34l.9-5.32-10.45,.13Z"/><text class="ad" transform="translate(336.43 308.28)"><tspan x="0" y="0">Videos</tspan></text><g><path class="ab" d="M369.34,371.32l-1.77,1.09h-1.32l-7.14,4.41h-1.18l7.11-4.39h-1.31l1.75-1.07,3.85-.04Z"/><path class="ab" d="M367.68,374.95l-2.72,.02c-.42,.27-.68,.47-.77,.62-.1,.14-.04,.21,.16,.21,.3,0,.74-.14,1.31-.42h1.28c-.53,.28-1.07,.53-1.62,.76-.54,.23-1.05,.41-1.51,.54-.47,.13-.86,.19-1.17,.2-.38,0-.57-.09-.58-.26,0-.18,.18-.43,.56-.77,.38-.33,.94-.73,1.67-1.18,.74-.45,1.47-.85,2.19-1.19,.72-.34,1.38-.61,1.99-.79,.6-.19,1.1-.28,1.5-.29s.58,.08,.58,.26c0,.18-.18,.43-.56,.76s-.92,.71-1.65,1.15c-.2,.12-.43,.25-.66,.39Zm0-.74c.38-.23,.6-.41,.69-.55s.02-.2-.2-.2-.48,.07-.83,.2c-.35,.13-.74,.32-1.17,.56h1.51Z"/><path class="ab" d="M367.61,376.78l1.23-1.2-2.61,1.21h-1.29l4.94-2.22,2.2-2.14h1.37l-1.25,1.2,2.66-1.23h1.33l-5.02,2.22-2.21,2.15h-1.35Z"/><path class="ab" d="M373.5,375.63l-1.88,1.13h-.62c-.44,0-.59-.11-.44-.35,.15-.23,.66-.62,1.55-1.16l2.9-1.75h-.49l1.87-1.13h.49l1.81-1.09h1.24l-1.82,1.08h.81l-1.89,1.12h-.81l-2.94,1.77c-.22,.13-.35,.22-.38,.28-.04,.06,0,.09,.14,.08h.43Z"/><path class="ab" d="M374.86,376.61c-.07-.13,.02-.32,.27-.57,.25-.26,.68-.56,1.27-.92h1.31c-.33,.2-.52,.35-.59,.46-.07,.11-.02,.16,.16,.16s.4-.05,.66-.14c.26-.09,.53-.22,.8-.38,.23-.14,.38-.25,.44-.34,.07-.09,.09-.16,.06-.22-.03-.06-.09-.12-.19-.19-.14-.11-.22-.22-.24-.33s.07-.27,.29-.49,.62-.5,1.2-.85c.87-.52,1.73-.94,2.58-1.24,.85-.3,1.55-.46,2.11-.46,.57,0,.78,.14,.62,.44-.16,.3-.67,.71-1.54,1.24h-1.35c.29-.17,.47-.31,.54-.42,.06-.1,0-.15-.17-.15-.15,0-.35,.05-.59,.14-.24,.09-.5,.22-.78,.38-.3,.18-.46,.32-.48,.42-.02,.1,.04,.21,.18,.32,.12,.12,.19,.23,.21,.34,.02,.11-.08,.27-.28,.48-.21,.21-.59,.48-1.15,.81-.53,.32-1.09,.6-1.67,.86-.58,.26-1.13,.46-1.66,.61-.53,.15-.98,.23-1.36,.23s-.59-.06-.66-.19Z"/><path class="ab" d="M379.31,376.52c0-.18,.19-.44,.58-.78,.4-.34,.98-.74,1.76-1.2,.77-.46,1.54-.86,2.31-1.21,.78-.35,1.48-.62,2.12-.81,.64-.19,1.16-.29,1.57-.29,.4,0,.61,.09,.61,.27s-.2,.45-.61,.8c-.41,.35-1,.75-1.78,1.21-.78,.46-1.55,.86-2.33,1.2-.77,.35-1.47,.61-2.11,.8-.63,.18-1.14,.28-1.54,.28s-.59-.09-.6-.27Zm3.66-1.18c.49-.19,1.03-.46,1.64-.82,.6-.36,.99-.63,1.15-.82,.16-.19,.12-.28-.12-.28s-.61,.1-1.09,.29c-.48,.19-1.03,.47-1.63,.83s-.98,.63-1.14,.81c-.16,.19-.13,.28,.11,.28s.6-.1,1.09-.29Z"/><path class="ab" d="M394.46,372.23l-7.67,4.47h-1.25l1.03-.59c-.46,.2-.9,.35-1.32,.47-.42,.12-.76,.18-1.02,.18-.31,0-.46-.07-.44-.22s.2-.36,.56-.65,.86-.62,1.52-1.01l4.45-2.61h1.26l-4.16,2.42c-.51,.3-.83,.53-.97,.69-.14,.16-.09,.24,.15,.24s.58-.08,1-.25c.42-.17,.89-.4,1.4-.69l4.18-2.44h1.27Z"/><path class="ab" d="M396.93,372.37c.47-.15,.85-.22,1.12-.22l-2.54,1.47h-.35c-.32,0-.68,.08-1.1,.23-.41,.15-.94,.41-1.57,.78l-3.56,2.06h-1.25l7.69-4.46h1.28l-1.3,.74c.58-.25,1.1-.45,1.58-.59Z"/><path class="ab" d="M396.81,373.23c.79-.35,1.5-.63,2.15-.82,.65-.19,1.18-.29,1.6-.3,.53,0,.71,.14,.54,.44s-.67,.72-1.5,1.26h-1.37c.49-.34,.56-.51,.23-.5-.24,0-.59,.1-1.08,.3-.48,.2-1.04,.48-1.67,.84s-1.05,.64-1.25,.84-.18,.29,.05,.29c.33,0,.84-.17,1.55-.52h1.36c-1.02,.52-1.97,.93-2.84,1.23-.87,.3-1.56,.45-2.07,.45-.4,0-.6-.09-.59-.27s.22-.45,.65-.79c.42-.34,1.04-.75,1.84-1.21s1.6-.88,2.39-1.23Z"/><path class="ab" d="M402.56,374.73l-2.91,.02c-.47,.28-.76,.49-.87,.64-.11,.15-.06,.22,.15,.22,.32,0,.8-.15,1.43-.44h1.37c-.59,.29-1.18,.55-1.78,.79-.6,.24-1.15,.42-1.65,.56-.51,.13-.93,.2-1.27,.2-.41,0-.61-.09-.6-.27,0-.18,.22-.45,.65-.8,.43-.35,1.05-.75,1.86-1.22,.82-.47,1.62-.88,2.42-1.23,.8-.35,1.52-.63,2.18-.82,.66-.19,1.2-.29,1.62-.3,.41,0,.61,.09,.61,.27,0,.18-.22,.45-.65,.79s-1.04,.74-1.84,1.19c-.23,.13-.47,.26-.73,.4Zm.05-.76c.42-.24,.67-.43,.77-.57s.03-.21-.2-.21-.52,.07-.91,.21c-.39,.14-.82,.33-1.29,.58h1.62Z"/><path class="ab" d="M400.86,376.5c-.05-.13,.05-.31,.29-.55s.61-.49,1.1-.78h1.28c-.26,.15-.42,.28-.47,.37-.05,.1,.01,.14,.19,.14,.16,0,.34-.04,.55-.1s.41-.16,.6-.26c.23-.13,.33-.22,.32-.29-.02-.06-.1-.13-.25-.2-.17-.07-.28-.15-.34-.23-.05-.08,0-.21,.18-.39s.53-.43,1.08-.74c.46-.26,.95-.5,1.46-.72,.52-.22,1.02-.39,1.5-.52,.49-.13,.91-.2,1.28-.2,.54,0,.71,.13,.51,.42-.2,.28-.69,.66-1.48,1.13h-1.21c.26-.15,.42-.27,.47-.37,.05-.09,0-.14-.19-.14-.15,0-.33,.03-.52,.1-.19,.06-.39,.15-.58,.26-.23,.13-.34,.23-.32,.29,.01,.07,.1,.13,.26,.19,.16,.09,.27,.17,.32,.25s-.02,.22-.2,.4c-.18,.19-.55,.44-1.1,.75-.47,.26-.96,.5-1.46,.71-.5,.21-.99,.37-1.46,.49-.47,.12-.87,.18-1.21,.18-.37,0-.57-.06-.62-.2Z"/></g><polygon class="ab" points="289.39 325.98 283.69 325.44 289.18 331.5 289.39 325.98"/><circle class="m" cx="278.99" cy="227.77" r="34.38"/><line class="l" x1="249.24" y1="265.82" x2="217.24" y2="321.63"/><path class="i" d="M291.99,308.85s-1.48-.64-3.41,1.03"/><ellipse class="ab" cx="291.95" cy="311.36" rx=".36" ry=".64" transform="translate(-61.22 71.68) rotate(-12.68)"/><path class="p" d="M296.18,318.98s-.32,.32-1.6,.36"/><polygon class="ab" points="296.7 356.34 287.9 354.67 296.04 365.78 296.7 356.34"/><polygon class="aa" points="296.74 398.77 293.81 390.51 305.48 399.62 296.74 398.77"/><polygon class="aa" points="280.47 420.9 289.34 428.85 285.41 429.09 280.47 420.9"/><polygon class="aa" points="521.78 343.39 530.74 333.98 532.92 377.52 521.78 343.39"/></g><path class="k" d="M523.93,228.02c.45,.29,.48,1.29,.48,1.29"/><ellipse class="ab" cx="523.55" cy="230.32" rx=".5" ry=".31" transform="translate(164.02 675.17) rotate(-74.8)"/><path class="ab" d="M508.24,273.46l4.69-1.26s-5.46,5.71-3.97,10.68c0,0-2-3.15-.71-9.42Z"/></svg>