<svg xmlns="http://www.w3.org/2000/svg" style="enable-background:new 0 0 1080 1080;" viewBox="271.61 278.86 548.6 679.97">
  <defs>
    <style type="text/css">
	.st0{fill:#009E4A;}
	.st1{fill:#ACB5BC;}
	.st2{fill:#F4704D;}
	.st3{fill:#3A2A7F;}
	.st4{fill:#FFFFFF;}
	.st5{fill:#0B78A8;}
	.st6{fill:#99BCA8;}
	.st7{fill:#D8D8D8;}
	.st8{fill:#51497A;}
	.st9{fill:#193051;}
	.st10{fill:#F16621;}
	.st11{fill:#98B2D8;}
	.st12{fill:#797979;}
	.st13{fill:#E6E6E6;}
	.st14{fill:#7C7F84;}
	.st15{fill:#F28E3C;}
	.st16{fill:#DD6B47;}
	.st17{fill:#396099;}
	.st18{fill:#EFCFCA;}
	.st19{fill:#E69476;}
	.st20{fill:#70210B;}
	.st21{fill:#486287;}
	.st22{fill:#5582AF;}
	.st23{fill:#3D3D2F;}
	.st24{fill:#EEEEEE;}
	.st25{fill:#CAD0D8;}
	.st26{fill:#FFB6C0;}
	.st27{fill:#F18E7B;}
	.st28{fill:#C7E0FF;}
	.st29{fill:#393561;}
	.st30{opacity:0.18;}
	.st31{fill:#4D4D4D;}
	.st32{fill:#396099;stroke:#FFFFFF;stroke-width:6;stroke-miterlimit:10;}
	.st33{fill:#FFFFFF;stroke:#E69476;stroke-width:8;stroke-miterlimit:10;}
	.st34{fill:#CCCCCC;}
	.st35{fill:none;stroke:#D1D8E5;stroke-width:7.6104;stroke-linecap:round;stroke-miterlimit:10;}
	.st36{fill:#487FE8;}
	.st37{fill:#333333;}
</style>
  </defs>
  <g>
    <g>
      <path class="st6" d="M 811.56 858.87 C 809.32 860.84 807.02 862.74 804.71 864.63 C 742.04 915.77 664.32 949.14 579.13 957 C 566.24 958.22 553.22 958.83 540 958.83 C 527.86 958.83 515.86 958.29 503.99 957.27 L 503.79 957.27 C 424.03 950.49 350.65 921.32 290.01 876.02 C 287.57 874.19 285.06 872.29 282.68 870.39 C 232.453 831.844 389.77 775.17 476.45 756.79 C 478.21 756.38 480.04 756.04 481.81 755.7 C 503.24 751.36 525.42 749.05 548.41 749.05 C 572.76 749.05 596.36 751.49 618.88 755.83 C 620.85 756.17 622.75 756.58 624.71 756.98 C 625.86 757.25 627.02 757.45 628.1 757.66 C 632.37 758.61 636.58 759.56 640.65 760.64 C 716.07 779.65 856.384 814.989 811.56 858.87 Z" style="fill: rgb(62, 157, 225);"/>
      <path class="st7" d="M623.75,818.8H474.96l11.34-104l1.93-17.76l3.83-35.11h119.45l3.29,42.06l0.33,4.35c0,0.03,0,0.05,0,0.05 L623.75,818.8z"/>
      <path class="st7" d="M623.76,818.81c0,11.63-33.31,21.06-74.4,21.06c-41.09,0-74.4-9.43-74.4-21.06 c0-11.63,33.31-21.06,74.4-21.06C590.45,797.75,623.76,807.18,623.76,818.81z"/>
      <path class="st8" d="M312.83,419.13L312.83,419.13c-1.67,0-3.02-1.35-3.02-3.02V281.88c0-1.67,1.35-3.02,3.02-3.02l0,0 c1.67,0,3.02,1.35,3.02,3.02v134.22C315.85,417.78,314.5,419.13,312.83,419.13z"/>
      <path class="st7" d="M350.5,636.33h-75.33c-1.96,0-3.56-1.6-3.56-3.56V383.44c0-1.96,1.6-3.56,3.56-3.56h75.33 c1.96,0,3.56,1.6,3.56,3.56v249.33C354.06,634.73,352.46,636.33,350.5,636.33z" style="stroke-linejoin: round; stroke-linecap: round;"/>
      <path class="st8" d="M753.24,419.13L753.24,419.13c-1.67,0-3.02-1.35-3.02-3.02V281.88c0-1.67,1.35-3.02,3.02-3.02l0,0 c1.67,0,3.02,1.35,3.02,3.02v134.22C756.25,417.78,754.9,419.13,753.24,419.13z"/>
      <path class="st7" d="M790.9,636.33h-75.33c-1.96,0-3.56-1.6-3.56-3.56V383.44c0-1.96,1.6-3.56,3.56-3.56h75.33 c1.96,0,3.56,1.6,3.56,3.56v249.33C794.46,634.73,792.86,636.33,790.9,636.33z" style="stroke-linejoin: round; stroke-linecap: round;"/>
      <path class="st6" d="M753.24,501.02v36.8c0,99.3-81.26,180.56-180.56,180.56h-65.75c-99.3,0-180.56-81.26-180.56-180.56V496.4 c0-82.07,67.17-149.22,149.25-149.22h123.79c80.53,0,147.17,62.74,153.35,141.77C753.09,492.93,753.24,496.95,753.24,501.02z" style="fill: rgb(62, 157, 225);"/>
      <path class="st4" d="M461.26,599.6h157.1c0,0-3.14,55.8-78.55,55.8C470.94,655.4,461.26,599.6,461.26,599.6z"/>
      <path class="st9" d="M718.47,486.81v25.52c0,6.82-0.97,13.39-2.8,19.64c-8.48,29.08-35.32,50.31-67.14,50.31H431.1 c-38.64,0-69.95-31.31-69.95-69.95v-24.76c0-30.71,24.91-55.62,55.62-55.62H663.6C693.91,431.94,718.47,456.5,718.47,486.81z"/>
      <path class="st4" d="M627.28,509.38c0,12.92-7.06,23.39-15.77,23.39c-8.71,0-15.77-10.47-15.77-23.39 c0-12.92,7.06-23.39,15.77-23.39C620.22,485.99,627.28,496.46,627.28,509.38z"/>
      <path class="st4" d="M483.88,509.38c0,12.92-7.06,23.39-15.77,23.39s-15.77-10.47-15.77-23.39c0-12.92,7.06-23.39,15.77-23.39 S483.88,496.46,483.88,509.38z"/>
    </g>
  </g>
</svg>